<svg width="164" height="227" viewBox="0 0 164 227" fill="none" xmlns="http://www.w3.org/2000/svg">
<path d="M51 199V192.8C51.1333 184.8 51.6667 178.133 52.6 172.8C53.6667 167.467 55.1333 163 57 159.4C59 155.667 61.4667 152.4 64.4 149.6C67.3333 146.8 70.7333 144 74.6 141.2C75.9333 140.267 77.2667 139.4 78.6 138.6C79.9333 137.667 81.2 136.733 82.4 135.8C87.7333 131.533 91.5333 127.467 93.8 123.6C96.2 119.6 97.4 114.467 97.4 108.2V101.2C97.4 94.5333 96 89.8 93.2 87C90.5333 84.0667 86.8667 82.6 82.2 82.6H77.6C73.3333 82.6 70.0667 83.6 67.8 85.6C65.5333 87.4667 64 89.8 63.2 92.6C62.4 95.2667 62 97.8 62 100.2V120L51.8 118.2V100.4C51.8 94 52.7333 88.9333 54.6 85.2C56.6 81.4667 59.4667 78.8667 63.2 77.4C67.0667 75.8 71.8667 75 77.6 75H83.6C88.9333 75 93.3333 75.8 96.8 77.4C100.4 79 103.067 81.5333 104.8 85C106.533 88.4667 107.4 93.0667 107.4 98.8V109.6C107.4 116.933 105.667 123 102.2 127.8C98.8667 132.6 94.2667 137.4 88.4 142.2C86.9333 143.533 85.3333 144.867 83.6 146.2C81.8667 147.533 80.1333 148.8 78.4 150C73.0667 154.267 69.1333 158.733 66.6 163.4C64.2 168.067 62.6667 172.8 62 177.6C61.3333 182.267 61 186.667 61 190.8H107.4L105.2 199H51Z" fill="#DDDBFF"/>
<path d="M62.4 4H23C16.7333 4 12.4 5.66666 10 8.99999C7.46666 12.2 6.2 16.9333 6.2 23.2V108.6C6.2 115.533 7.33333 120.533 9.59999 123.6C11.8667 126.533 16.7333 128 24.2 128H62.4V4ZM30 119.8C24.6667 119.8 21.0667 118.867 19.2 117C17.3333 115 16.4 111.267 16.4 105.8V26C16.4 21.3333 17.4667 17.8667 19.6 15.6C21.6 13.3333 24.5333 12.2 28.4 12.2H52.2V119.8H30Z" fill="#DDDBFF"/>
<path d="M97.6 4H137C143.267 4 147.6 5.66666 150 8.99999C152.533 12.2 153.8 16.9333 153.8 23.2V108.6C153.8 115.533 152.667 120.533 150.4 123.6C148.133 126.533 143.267 128 135.8 128H97.6V4ZM130 119.8C135.333 119.8 138.933 118.867 140.8 117C142.667 115 143.6 111.267 143.6 105.8V26C143.6 21.3333 142.533 17.8667 140.4 15.6C138.4 13.3333 135.467 12.2 131.6 12.2H107.8V119.8H130Z" fill="#DDDBFF"/>
<path d="M91 105C91 111.351 85.8513 116.5 79.5 116.5C73.1487 116.5 68 111.351 68 105C68 98.6487 73.1487 93.5 79.5 93.5C85.8513 93.5 91 98.6487 91 105Z" fill="#FFA399"/>
</svg>
